# AST/ASF file generated using VICON BodyLanguage
# -----------------------------------------------
:version 1.10
:name VICON
:units
  mass 1.0
  length 0.45
  angle deg
:documentation
   .ast/.asf automatically generated from VICON data using
   VICON BodyBuilder and BodyLanguage model FoxedUp or BRILLIANT.MOD
:root
   order TX TY TZ RX RY RZ
   axis XYZ
   position 0 0 0  
   orientation 0 0 0 
:bonedata
  begin
     id 1 
     name lhipjoint
     direction 0.682418 -0.694059 0.22932 
     length 2.25561 
     axis 0 0 0  XYZ
  end
  begin
     id 2 
     name lfemur
     direction 0.34202 -0.939693 0  
     length 6.96448  
     axis 0 0 20  XYZ
    dof rx ry rz
    limits (-160.0 20.0)
           (-70.0 70.0)
           (-60.0 70.0)
  end
  begin
     id 3 
     name ltibia
     direction 0.34202 -0.939693 0   
     length 6.88553   
     axis 0 0 20   XYZ
    dof rx
    limits (-10.0 170.0)
  end
  begin
     id 4 
     name lfoot
     direction 0.0723587 -0.198804 0.977364   
     length 1.88518   
     axis -90 7.62852e-016 20   XYZ
    dof rx rz
    limits (-45.0 90.0)
           (-70.0 20.0)
  end
  begin
     id 5 
     name ltoes
     direction 1.53558e-011 -4.21962e-011 1   
     length 0.952124   
     axis -90 7.62852e-016 20   XYZ
    dof rx
    limits (-90.0 20.0)
  end
  begin
     id 6 
     name rhipjoint
     direction -0.657603 -0.71533 0.236348   
     length 2.18854  
     axis 0 0 0  XYZ 
  end
  begin
     id 7 
     name rfemur
     direction -0.34202 -0.939693 0   
     length 6.86686   
     axis 0 0 -20   XYZ
    dof rx ry rz
    limits (-160.0 20.0)
           (-70.0 70.0)
           (-70.0 60.0)
  end
  begin
     id 8 
     name rtibia
     direction -0.34202 -0.939693 0   
     length 6.59503   
     axis 0 0 -20   XYZ
    dof rx
    limits (-10.0 170.0)
 end
 begin
     id 9 
     name rfoot
     direction -0.101977 -0.280179 0.954516   
     length 1.93723  
     axis -90 -7.62852e-016 -20   XYZ
    dof rx rz
    limits (-45.0 90.0)
           (-20.0 70.0)
  end
  begin
     id 10 
     name rtoes
     direction -1.53564e-011 -4.21897e-011 1   
     length 0.970315   
     axis -90 -7.62852e-016 -20   XYZ
    dof rx
    limits (-90.0 20.0)
  end
  begin
     id 11 
     name lowerback
     direction -0.0339559 0.999421 -0.00235966   
     length 1.88543   
     axis 0 0 0   XYZ
    dof rx ry rz
    limits (-20.0 45.0)
           (-30.0 30.0)
           (-30.0 30.0)
  end
  begin
     id 12 
     name upperback
     direction 0.00401003 0.999739 0.0224689   
     length 1.8856   
     axis 0 0 0   XYZ
    dof rx ry rz
    limits (-20.0 45.0)
           (-30.0 30.0)
           (-30.0 30.0)
  end
  begin
     id 13 
     name thorax
     direction 0.0198619 0.999546 0.0226536   
     length 1.88352   
     axis 0 0 0   XYZ
    dof rx ry rz
    limits (-20.0 45.0)
           (-30.0 30.0)
           (-30.0 30.0)
  end
  begin
     id 14 
     name lowerneck
     direction -0.0461848 0.998632 0.0245198   
     length 1.34895   
     axis 0 0 0   XYZ
    dof rx ry rz
    limits (-20.0 45.0)
           (-30.0 30.0)
           (-30.0 30.0)
  end
  begin
     id 15 
     name upperneck
     direction -0.0180627 0.994724 -0.100984   
     length 1.35214   
     axis 0 0 0   XYZ
    dof rx ry rz
    limits (-20.0 45.0)
           (-30.0 30.0)
           (-30.0 30.0)
  end
  begin
     id 16
     name head
     direction -0.00374772 0.999293 -0.037403  
     length 1.3568  
     axis 0 0 0   XYZ
    dof rx ry rz
    limits (-20.0 45.0)
           (-30.0 30.0)
           (-30.0 30.0)
  end
  begin
     id 17 
     name lclavicle
     direction 0.971773 0.191119 0.138311  
     length 2.84954  
     axis 0 0 0   XYZ
    dof ry rz
    limits (-20.0 10.0)
           (0.0 20.0)
  end
  begin
     id 18 
     name lhumerus
     direction 1 -4.4897e-011 -2.43761e-027   
     length 4.40919   
     axis 180 -30 -90   XYZ
    dof rx ry rz
    limits (-60.0 90.0)
           (-90.0 90.0)
           (-90.0 90.0)
  end
  begin
     id 19
     name lradius
     direction 1 -4.4896e-011 -9.1621e-027   
     length 3.03857   
     axis 180 -30 -90   XYZ
    dof rx
    limits (-10.0 170.0)
  end
  begin
     id 20
     name lwrist
     direction 1 -4.4896e-011 -1.41363e-026   
     length 1.51928   
     axis 1.07133e-014 90 90   XYZ
    dof ry
    limits (-180.0 0.0)
 end
  begin
     id 21 
     name lhand
     direction 1 -4.48978e-011 -2.82725e-026   
     length 0.523208   
     axis 1.80403e-014 90 90   XYZ
    dof rx rz
    limits (-90.0 90.0)
           (-45.0 45.0)
  end
  begin
     id 22 
     name lfingers
     direction 1 -4.48977e-011 -5.6545e-026   
     length 0.421824   
     axis 3.60806e-014 90 90   XYZ
    dof rx
    limits (0.0 90.0)
  end
  begin
     id 23
     name lthumb
     direction 0.707107 -6.34962e-011 0.707107   
     length 0.605657   
     axis -90 45 2.85299e-015   XYZ
    dof rx rz
    limits (-45.0 45.0)
           (-45.0 45.0)
  end
  begin
     id 24 
     name rclavicle
     direction -0.957247 0.24311 0.156766   
     length 3.12406  
     axis 0 0 0   XYZ 
    dof ry rz
    limits (-10.0 20.0)
           (-20.0 0.0)
  end
  begin
     id 25 
     name rhumerus
     direction -1 -4.48964e-011 -1.70632e-027  
     length 4.61969   
     axis 180 30 90   XYZ
    dof rx ry rz
    limits (-90.0 60.0)
           (-90.0 90.0)
           (-90.0 90.0)
  end
  begin
     id 26 
     name rradius
     direction -1 -4.48966e-011 -6.60395e-027   
     length 3.09382   
     axis 180 30 90   XYZ
    dof rx
    limits (-10.0 170.0)
  end
  begin
     id 27 
     name rwrist
     direction -1 -4.48963e-011 -1.41363e-026   
     length 1.54691   
     axis 1.07133e-014 -90 -90   XYZ
    dof ry
    limits (-180.0 0.0)
  end
  begin
     id 28
     name rhand
     direction -1 -4.49013e-011 -2.82725e-026   
     length 0.500896   
     axis 1.80403e-014 -90 -90   XYZ
    dof rx rz
    limits (-90.0 90.0)
           (-45.0 45.0)
  end
  begin
     id 29
     name rfingers
     direction -1 -4.48902e-011 -5.6545e-026   
     length 0.403835   
     axis 3.60806e-014 -90 -90   XYZ
    dof rx
    limits (0.0 90.0)
  end
  begin
     id 30
     name rthumb
     direction -0.707107 -6.34953e-011 0.707107   
     length 0.579829   
     axis -90 -45 -2.85299e-015   XYZ
    dof rx rz
    limits (-45.0 45.0)
           (-45.0 45.0)
  end
:hierarchy
  begin
    root lhipjoint rhipjoint lowerback
    lhipjoint lfemur
    lfemur ltibia
    ltibia lfoot
    lfoot ltoes
    rhipjoint rfemur
    rfemur rtibia
    rtibia rfoot
    rfoot rtoes
    lowerback upperback
    upperback thorax
    thorax lowerneck lclavicle rclavicle
    lowerneck upperneck
    upperneck head
    lclavicle lhumerus
    lhumerus lradius
    lradius lwrist
    lwrist lhand lthumb
    lhand lfingers
    rclavicle rhumerus
    rhumerus rradius
    rradius rwrist
    rwrist rhand rthumb
    rhand rfingers
  end

#!OML:ASF E:\madness\Project 1\Capture day 1\Session 1\Female1.ASF
:FULLY-SPECIFIED
:DEGREES
524
root 31.1888 15.7761 1.5038 -351.077 -47.754 362.89
lowerback -1.08518 2.87245 -3.22382
upperback -3.29671 3.81894 0.912274
thorax -3.06061 2.00273 2.67161
lowerneck 5.35906 17.6079 13.6083
upperneck 7.85726 26.5112 -23.7903
head 6.65025 12.9677 -7.59378
rclavicle -4.62671e-014 1.03368e-014
rhumerus -47.2963 21.6369 -89.9861
rradius 79.3493
rwrist 2.59097
rhand -10.1974 -46.2795
rfingers 7.12502
rthumb 15.7935 -75.6552
lclavicle -4.62671e-014 1.03368e-014
lhumerus -14.7782 -51.628 44.5323
lradius 95.6721
lwrist -12.5889
lhand -6.14553 -15.0782
lfingers 7.12502
lthumb 19.6925 13.9443
rfemur -8.27088 2.47765 19.4951
rtibia 27.718
rfoot -27.0285 -28.7085
rtoes -10.6174
lfemur -37.913 -20.5148 -14.9723
ltibia 40.8129
lfoot -13.9574 -7.40169
ltoes 13.3749
525
root 31.206 15.771 1.47783 -350.612 -47.3185 362.738
lowerback -1.31925 2.33406 -3.48185
upperback -3.1311 3.12137 1.57458
thorax -2.76094 1.6639 3.5315
lowerneck 5.18644 18.137 12.2989
upperneck 7.41375 27.1121 -24.0018
head 6.51089 13.2249 -7.38496
rclavicle 2.37051e-014 1.51076e-014
rhumerus -46.0207 24.6288 -90.0604
rradius 79.3627
rwrist 2.34644
rhand -10.2569 -46.8777
rfingers 7.12502
rthumb 15.7362 -76.2579
lclavicle 2.37051e-014 1.51076e-014
lhumerus -15.9964 -50.1775 45.791
lradius 95.5673
lwrist -12.6233
lhand -6.37349 -15.1844
lfingers 7.12502
lthumb 19.4733 13.8605
rfemur -9.00653 1.67562 19.6523
rtibia 28.1985
rfoot -26.2658 -28.6763
rtoes -13.2417
lfemur -38.8392 -20.7196 -14.5589
ltibia 41.2695
lfoot -13.7511 -7.68748
ltoes 13.8108
526
root 31.2216 15.7658 1.45667 -350.232 -46.7719 362.632
lowerback -1.45165 2.06204 -3.43219
upperback -3.09953 2.76581 1.79231
thorax -2.63102 1.48487 3.74193
lowerneck 5.04369 18.2889 11.9203
upperneck 7.29296 27.2786 -24.0369
head 6.48189 13.2909 -7.30858
rclavicle -4.1546e-014 -1.43125e-014
rhumerus -45.101 26.202 -90.3954
rradius 79.4202
rwrist 2.52652
rhand -10.3608 -46.6821
rfingers 7.12502
rthumb 15.6362 -76.0702
lclavicle -4.1546e-014 -1.43125e-014
lhumerus -15.8596 -49.7002 45.8536
lradius 95.373
lwrist -12.5305
lhand -6.6011 -15.3111
lfingers 7.12502
lthumb 19.2544 13.7557
rfemur -9.54817 0.801988 19.8102
rtibia 28.445
rfoot -25.4935 -28.6319
rtoes -15.256
lfemur -39.7525 -20.904 -14.223
ltibia 41.747
lfoot -13.4318 -8.16186
ltoes 13.3891
527
root 31.2568 15.7556 1.44138 -349.796 -46.0157 362.65
lowerback -1.51437 1.91194 -2.92851
upperback -3.26752 2.56157 1.59992
thorax -2.7164 1.37056 3.26211
lowerneck 5.08349 18.199 12.272
upperneck 7.28512 27.1675 -24.0019
head 6.49499 13.253 -7.36105
rclavicle -1.30204e-014 5.56597e-015
rhumerus -44.5949 26.9526 -91.1103
rradius 79.804
rwrist 2.23892
rhand -10.3381 -46.9108
rfingers 7.12502
rthumb 15.658 -76.2972
lclavicle -1.30204e-014 5.56597e-015
lhumerus -14.9694 -49.9076 45.0822
lradius 95.2147
lwrist -12.4697
lhand -6.81093 -15.5286
lfingers 7.12502
lthumb 19.0527 13.5582
rfemur -10.3297 -0.220281 19.8368
rtibia 28.7167
rfoot -24.9811 -28.5253
rtoes -16.7312
lfemur -41.0031 -21.3904 -13.842
ltibia 42.2476
lfoot -12.8103 -8.62728
ltoes 12.7717
528
root 31.2153 15.7749 1.40468 -349.954 -46.1299 362.493
lowerback -1.40731 2.03272 -3.40636
upperback -3.13933 2.72204 1.602
thorax -2.6817 1.46129 3.52856
lowerneck 5.18258 18.1131 12.5588
upperneck 7.17852 27.0281 -23.8901
head 6.43956 13.2118 -7.3956
rclavicle -6.09772e-014 -2.38542e-015
rhumerus -44.1359 27.8242 -91.9362
rradius 80.3899
rwrist 1.41008
rhand -10.4959 -47.2481
rfingers 7.12502
rthumb 15.506 -76.6464
lclavicle -6.09772e-014 -2.38542e-015
lhumerus -14.0897 -50.2098 44.1556
lradius 95.1558
lwrist -12.4988
lhand -7.07052 -15.9628
lfingers 7.12502
lthumb 18.803 13.1484
rfemur -9.86916 0.248887 20.1691
rtibia 28.6381
rfoot -25.2124 -28.854
rtoes -16.723
lfemur -40.8305 -21.2208 -13.6609
ltibia 42.726
lfoot -12.4975 -8.94395
ltoes 13.5646
529
root 31.2252 15.7736 1.38165 -349.815 -45.531 362.575
lowerback -1.32271 1.96032 -3.2387
upperback -3.2323 2.61927 1.44135
thorax -2.79987 1.40662 3.26502
lowerneck 5.3077 18.0201 12.6755
upperneck 6.98526 26.8539 -23.7833
head 6.32284 13.1561 -7.42297
rclavicle 1.67476e-014 -7.95139e-015
rhumerus -43.576 28.5735 -92.5847
rradius 81.0967
rwrist 0.239798
rhand -9.98335 -47.3889
rfingers 7.12502
rthumb 15.9997 -76.7482
lclavicle 1.67476e-014 -7.95139e-015
lhumerus -13.0851 -50.5146 43.2352
lradius 95.1141
lwrist -12.5493
lhand -6.79441 -15.7996
lfingers 7.12502
lthumb 19.0685 13.2857
rfemur -10.1104 -0.329022 20.2468
rtibia 28.546
rfoot -24.9299 -29.0106
rtoes -17.6827
lfemur -41.7138 -21.4225 -13.4721
ltibia 43.2607
lfoot -11.6743 -9.89557
ltoes 15.4836
530
root 31.1911 15.7921 1.35015 -350.075 -45.5827 362.427
lowerback -1.12343 2.13277 -3.66492
upperback -3.04961 2.84665 1.4879
thorax -2.76725 1.5294 3.54395
lowerneck 5.44118 17.8537 12.9531
upperneck 6.86891 26.6244 -23.8137
head 6.26232 13.0708 -7.52074
rclavicle -1.13407e-013 -1.82882e-014
rhumerus -42.8738 29.3068 -93.0157
rradius 81.9458
rwrist -1.07939
rhand -10.0926 -47.9917
rfingers 7.12502
rthumb 15.8945 -77.3594
lclavicle -1.13407e-013 -1.82882e-014
lhumerus -11.8839 -50.8169 42.4066
lradius 94.964
lwrist -12.72
lhand -6.03868 -15.1778
lfingers 7.12502
lthumb 19.7952 13.8342
rfemur -9.45257 0.0662107 20.5435
rtibia 28.1789
rfoot -25.0661 -29.1514
rtoes -16.4917
lfemur -41.5349 -21.1505 -13.4109
ltibia 43.8281
lfoot -11.4673 -10.4646
ltoes 15.6088
531
root 31.1946 15.7853 1.32889 -349.518 -45.2749 362.303
lowerback -1.56705 2.16424 -3.65268
upperback -3.12525 2.90113 1.47662
thorax -2.59978 1.55382 3.5408
lowerneck 5.52707 17.672 13.2783
upperneck 6.86601 26.4055 -23.8951
head 6.26127 12.9807 -7.63186
rclavicle -6.05299e-014 1.59028e-014
rhumerus -42.1378 30.4392 -93.4425
rradius 82.8304
rwrist -2.1166
rhand -10.4991 -48.5462
rfingers 7.12502
rthumb 15.503 -77.9447
lclavicle -6.05299e-014 1.59028e-014
lhumerus -10.7494 -51.0435 41.7621
lradius 94.7703
lwrist -12.8403
lhand -5.77818 -15.0963
lfingers 7.12502
lthumb 20.0456 13.8897
rfemur -9.9422 -0.0621757 20.7423
rtibia 28.0371
rfoot -25.1041 -29.2335
rtoes -16.293
lfemur -42.7219 -21.3414 -12.8901
ltibia 44.4833
lfoot -11.0852 -10.8788
ltoes 15.031
532
root 31.1913 15.7771 1.30711 -349.529 -45.0104 362.137
lowerback -1.317 2.20985 -3.61623
upperback -3.1231 2.95454 1.46443
thorax -2.74025 1.58237 3.49638
lowerneck 5.63575 17.5308 13.5898
upperneck 6.93757 26.2418 -23.8555
head 6.26889 12.9164 -7.6962
rclavicle 3.67752e-014 1.11319e-014
rhumerus -41.6823 31.4983 -94.1355
rradius 83.8138
rwrist -2.84143
rhand -10.9894 -49.075
rfingers 7.12502
rthumb 15.0307 -78.5094
lclavicle 3.67752e-014 1.11319e-014
lhumerus -9.92612 -51.2807 41.1646
lradius 94.7063
lwrist -12.7459
lhand -4.9954 -14.2558
lfingers 7.12502
lthumb 20.7978 14.6495
rfemur -9.70128 -0.0939969 21.0135
rtibia 27.8098
rfoot -25.0148 -29.5065
rtoes -16.4174
lfemur -43.1774 -21.4171 -12.626
ltibia 45.1498
lfoot -10.6593 -11.5119
ltoes 15.9768
533
root 31.1839 15.7713 1.28645 -349.591 -44.8135 362.056
lowerback -1.07917 2.20276 -3.67934
upperback -3.14339 2.9374 1.4644
thorax -2.89715 1.57894 3.5217
lowerneck 5.74272 17.4668 13.6979
upperneck 6.97574 26.1488 -23.6919
head 6.23314 12.8847 -7.68562
rclavicle 1.38553e-013 1.19271e-014
rhumerus -41.1425 32.5821 -94.7838
rradius 84.7288
rwrist -3.13377
rhand -11.0265 -49.2554
rfingers 7.12502
rthumb 14.995 -78.6925
lclavicle 1.38553e-013 1.19271e-014
lhumerus -9.54874 -51.3816 40.8232
lradius 94.6866
lwrist -12.7109
lhand -4.91367 -14.8621
lfingers 7.12502
lthumb 20.8764 14.0346
rfemur -9.53159 -0.072687 21.2101
rtibia 27.7065
rfoot -25.0702 -29.7357
rtoes -16.2867
lfemur -43.5829 -21.3529 -12.4409
ltibia 45.7628
lfoot -10.0584 -12.1629
ltoes 18.1488
534
root 31.1766 15.7615 1.26908 -349.587 -44.7009 362.02
lowerback -1.06062 2.18523 -3.84857
upperback -3.10356 2.91465 1.53079
thorax -2.87746 1.57213 3.68611
lowerneck 5.71615 17.438 13.5747
upperneck 6.98289 26.0721 -23.4981
head 6.17756 12.8476 -7.62155
rclavicle -2.33572e-014 2.78299e-014
rhumerus -40.156 34.0441 -95.1085
rradius 85.4503
rwrist -3.2258
rhand -10.7402 -48.7844
rfingers 7.12502
rthumb 15.2708 -78.2007
lclavicle -2.33572e-014 2.78299e-014
lhumerus -9.28502 -51.3121 40.6316
lradius 94.6974
lwrist -12.6724
lhand -4.90661 -14.5075
lfingers 7.12502
lthumb 20.8831 14.3885
rfemur -9.4441 -0.0628835 21.3041
rtibia 27.5585
rfoot -25.3211 -29.703
rtoes -15.7873
lfemur -44.0518 -21.4582 -12.1706
ltibia 46.2241
lfoot -9.59829 -12.5839
ltoes 20.0461
